<?xml version="1.0" encoding="UTF-8"?>
<svg id="Layer_1" data-name="Layer 1" xmlns="http://www.w3.org/2000/svg" width="1268.86" height="1268.86" viewBox="0 0 1268.86 1268.86">
  <defs>
    <style>
      .cls-1 {
        fill: #f9fafb;
      }
    </style>
  </defs>
  <path class="cls-1" d="M1219.71,250.7c3.33,3.33,6.12,8.36,8.8,13.54,5.01,9.68,7.75,20.38,8.01,31.29,5.4,230.87,5.26,464.48-.42,695.21-12.65,35.25-42.28,41.85-73.3,55.1-143.05,61.11-315.34,124.13-463.11,174.24-68.65,23.28-67.38,24-136.5,1.23-132.29-43.58-276.41-101.28-406.83-152.56-41.12-16.17-122.21-35.51-134.29-81.22-2.66-235.97-5.35-474.01,1.37-709.64,12.65-35.25,42.28-41.85,73.3-55.1,143.05-61.11,315.34-124.13,463.11-174.24,68.65-23.28,67.38-24,136.5-1.23,132.44,43.63,276.1,101.45,406.83,152.56,26.52,10.37,99.87,34.14,116.54,50.82ZM1179.24,295.74L627.83,88.68,80.3,295.74l1.51,673.32c4.76,9.84,57.18,28.57,71.22,34.24,156.26,63.21,318.39,113.55,474.81,176.64l549.2-205.87,2.2-678.33Z"/>
  <path class="cls-1" d="M695.43,1114.31c-7.32-7.99-10.9-21.99-10.88-32.71.26-174.49-4.77-354.07.01-527.76.5-21.56,11.22-39.62,32.42-45.53,124.79-39.94,248.91-102.08,373.54-140,43.1-13.11,69.77-15.04,75.9,38.87,2.52,172.12-1.45,335.76-.04,500.23.46,53.65-.79,53.76-49.42,74.24-121.36,51.1-251.51,89.27-373.37,140.13-15.37,5.88-36.66,5.08-48.15-7.46ZM1060.77,670.99v-91.7l-252.19,96.29v87.12l252.19-91.7ZM1060.77,826.89v-87.12l-252.19,98.58v80.24l252.19-91.7Z"/>
  <path class="cls-1" d="M868.18,230.87c7.14,9.02-93.97,33.72-96.27,45.75,31.77,11.17,74.15,21.26,103.53,36.31,4.8,2.46,5.33,2.89,6.52,9.54-32.04,16.18-80.07,40.96-114.81,34.75-30.04-5.38-83.11-37.98-107.98-39.04-29.61-1.25-85.17,42.51-114.23,36.55-21.88-4.48-77.21-21.74-107.74-36.85,19.62-6.71,92-39.41,100.85-41.27,4.67-5.99-91.5-40.66-100.87-41.26-2.1-11.91,1.68-7.08,6.51-9.54,12.82-6.53,77.74-33.66,88.68-35.45,26.74-4.37,90.61,36.73,119.11,39.52,23.56,2.3,77.6-39.73,104.42-36.06s91.23,26.49,112.28,37.05Z"/>
  <path class="cls-1" d="M454.98,708.2c.88,31.58,2.32,66,.42,93.34-.4,5.84,3.32,8.43-6.59,6.89l-254.42-98.67c-1.57-27.86-.12-52.09,1.46-79.25.35-6.03,1.94-20.51,7.66-17.13l251.48,94.83Z"/>
</svg>